<?xml version="1.0" encoding="utf-8"?>
<!-- Generator: Adobe Illustrator 16.0.0, SVG Export Plug-In . SVG Version: 6.00 Build 0)  -->
<!DOCTYPE svg PUBLIC "-//W3C//DTD SVG 1.1//EN" "http://www.w3.org/Graphics/SVG/1.1/DTD/svg11.dtd">
<svg version="1.1" xmlns="http://www.w3.org/2000/svg" xmlns:xlink="http://www.w3.org/1999/xlink" x="0px" y="0px" width="1900px"
	 height="1400px" viewBox="0 0 1900 1400" enable-background="new 0 0 1900 1400" xml:space="preserve">
<g id="background">
	<rect y="0" fill="#C7E9F2" width="1900" height="1400"/>
	<rect x="0.301" y="495.665" fill="#ABD3DD" width="250.096" height="904.335"/>
	<rect x="359.051" y="645.716" fill="#ABD3DD" width="370.312" height="754.284"/>
	<rect x="65.24" y="216.331" fill="#ABD3DD" width="370.312" height="1183.669"/>
	<rect x="608.075" y="495.494" fill="#ABD3DD" width="370.312" height="904.506"/>
	<rect x="880.084" y="435.886" fill="#ABD3DD" width="370.312" height="964.114"/>
	<rect x="1332.873" y="711.905" fill="#ABD3DD" width="370.312" height="688.095"/>
	<rect x="1065.24" y="350.938" fill="#ABD3DD" width="370.312" height="1049.062"/>
	<rect x="1608.074" y="543.125" fill="#ABD3DD" width="291.926" height="856.875"/>
</g>
<g id="elements">
	<g>
		<g>
			<path fill="#3E5A60" d="M564.084,229.161c-13.724,0-24.888-11.165-24.888-24.888v-49.746c0-2.695-2.192-4.888-4.888-4.888
				H419.929c-2.695,0-4.888,2.193-4.888,4.888v49.746c0,13.724-11.165,24.888-24.889,24.888c-5.523,0-10-4.477-10-10s4.477-10,10-10
				c2.696,0,4.889-2.193,4.889-4.888v-49.746c0-13.724,11.165-24.888,24.888-24.888h114.379c13.723,0,24.888,11.165,24.888,24.888
				v49.746c0,2.695,2.193,4.888,4.888,4.888c5.523,0,10,4.477,10,10S569.607,229.161,564.084,229.161z"/>
		</g>
		<path fill="#E6A85E" d="M779.693,604.798c0,5.374-4.356,9.731-9.732,9.731H184.277c-5.375,0-9.731-4.357-9.731-9.731v-365.82
			c0-5.375,4.357-9.732,9.731-9.732h585.684c5.376,0,9.732,4.358,9.732,9.732V604.798z"/>
		<path fill="#D29652" d="M475.576,229.246H184.277c-5.375,0-9.731,4.358-9.731,9.732v365.82c0,5.374,4.357,9.731,9.731,9.731
			h291.298V229.246z"/>
		<path fill="#3E5A60" d="M524.234,403.798c0-5.374-4.357-9.731-9.731-9.731h-74.768c-5.375,0-9.732,4.358-9.732,9.731v74.768
			c0,5.374,4.357,9.731,9.732,9.731h74.768c5.375,0,9.731-4.357,9.731-9.731V403.798z"/>
		<path fill="#293F42" d="M477.095,394.067h-37.36c-5.375,0-9.732,4.358-9.732,9.731v74.768c0,5.374,4.357,9.731,9.732,9.731h37.36
			V394.067z"/>
		<path fill="#F8BB68" d="M787.318,431.451c0,5.374-4.356,9.731-9.731,9.731H176.651c-5.374,0-9.731-4.357-9.731-9.731V228.909
			c0-5.375,4.358-9.731,9.731-9.731h600.936c5.375,0,9.731,4.357,9.731,9.731V431.451z"/>
		<path fill="#E6A85E" d="M477.095,219.177H176.651c-5.374,0-9.731,4.357-9.731,9.731v202.542c0,5.374,4.358,9.731,9.731,9.731
			h300.444V219.177z"/>
	</g>
	<g>
		<path fill="#3E5A60" d="M351.837,763.083v-47.595l-33.655-33.656h-1.178v64.867c0,3.199-2.595,5.795-5.796,5.795h-33.65
			c-3.198,0-5.795-2.596-5.795-5.795v-64.867h-1.177l-33.656,33.656v47.595l33.019,33.021v184.86l-33.019,33.018v47.598
			l33.656,33.655h1.177v-64.865c0-3.201,2.595-5.797,5.795-5.797h33.65c3.2,0,5.796,2.596,5.796,5.797v64.865h1.178l33.655-33.655
			v-47.598l-33.019-33.018v-184.86L351.837,763.083z"/>
		<path fill="#293F42" d="M294.384,752.494h-16.825c-3.198,0-5.795-2.596-5.795-5.795v-64.867h-1.177l-33.656,33.656v47.595
			l33.019,33.021v184.86l-33.019,33.018v47.598l33.656,33.655h1.177v-64.865c0-3.201,2.595-5.797,5.795-5.797h16.825V752.494z"/>
	</g>
	<g>
		<polygon fill="#A7A9AC" points="469.005,681.832 437.823,681.832 431.941,719.679 439.95,741.513 439.95,878.345 466.878,878.345 
			466.878,741.513 474.886,719.679 		"/>
		<polygon fill="#3E5A60" points="469.005,681.832 437.823,681.832 431.941,719.679 439.95,741.513 439.95,878.345 466.878,878.345 
			466.878,741.513 474.886,719.679 		"/>
		<polygon fill="#293F42" points="453.562,878.345 453.562,681.832 437.823,681.832 431.941,719.679 439.95,741.513 439.95,878.345 
					"/>
		<path fill="#EC6A48" d="M499.669,878.345h-32.236c-4.366-0.095-9.09,0-14.019,0c-4.929,0-9.653-0.095-14.02,0h-32.238
			l5.868,19.964c-0.002,0.138-0.004,0.274-0.004,0.414v156.118c0,22.311,18.085,40.395,40.394,40.395
			c22.309,0,40.394-18.084,40.394-40.395V898.723c0-0.143-0.003-0.278-0.005-0.419L499.669,878.345z"/>
		<path fill="#E25A3F" d="M413.02,898.723h80.788c0-0.143-0.003-0.278-0.005-0.419l5.866-19.959h-32.236
			c-4.366-0.095-9.09,0-14.019,0c-4.929,0-9.653-0.095-14.02,0h-32.238l5.868,19.964C413.022,898.446,413.02,898.583,413.02,898.723
			z"/>
		<path fill="#E25A3F" d="M453.778,878.344c-0.122,0-0.243,0.001-0.364,0.001c-4.929,0-9.653-0.095-14.02,0h-32.238l5.868,19.964
			c-0.002,0.138-0.004,0.274-0.004,0.414v156.118c0,22.311,18.085,40.395,40.394,40.395c0.121,0,0.242-0.004,0.364-0.004V878.344z"
			/>
		<path fill="#D14D36" d="M413.02,898.723L413.02,898.723h40.758v-20.379c-0.122,0-0.243,0.001-0.364,0.001
			c-4.929,0-9.653-0.095-14.02,0h-32.238l5.868,19.964C413.022,898.446,413.02,898.583,413.02,898.723z"/>
		<path fill="#D14D36" d="M441.405,1054.478c0,4.422-3.585,8.006-8.007,8.006l0,0c-4.421,0-8.005-3.584-8.005-8.006V935.842
			c0-4.422,3.584-8.006,8.005-8.006l0,0c4.422,0,8.007,3.584,8.007,8.006V1054.478z"/>
		<path fill="#E25A3F" d="M465.423,1054.478c0,4.422,3.584,8.006,8.005,8.006l0,0c4.421,0,8.006-3.584,8.006-8.006V935.842
			c0-4.422-3.584-8.006-8.006-8.006l0,0c-4.421,0-8.005,3.584-8.005,8.006V1054.478z"/>
	</g>
	<g>
		<path fill="#3E5A60" d="M871.907,575.121l-20.504-7.093c0.651-11.119-0.045-22.152-1.982-32.889l19.533-9.489
			c6.924-3.36,9.806-11.7,6.441-18.621l-21.114-43.469c-3.365-6.92-11.7-9.8-18.622-6.441l-19.532,9.49
			c-7.245-8.155-15.488-15.522-24.631-21.88l7.096-20.504c2.516-7.272-1.343-15.207-8.612-17.722l-45.671-15.802
			c-7.27-2.515-15.202,1.339-17.718,8.611l-7.097,20.505c-11.118-0.652-22.151,0.045-32.888,1.979l-9.493-19.533
			c-3.36-6.919-11.698-9.805-18.616-6.443l-43.47,21.121c-6.918,3.361-9.803,11.699-6.442,18.62l9.49,19.532
			c-8.154,7.247-15.521,15.488-21.878,24.633l-20.506-7.095c-7.271-2.518-15.206,1.34-17.721,8.609l-15.801,45.672
			c-2.516,7.269,1.339,15.203,8.61,17.721l20.506,7.096c-0.652,11.119,0.044,22.149,1.979,32.887l-19.534,9.489
			c-6.922,3.362-9.805,11.701-6.444,18.62l21.122,43.468c3.36,6.918,11.698,9.804,18.62,6.442l19.534-9.491
			c7.245,8.158,15.486,15.521,24.632,21.88l-7.095,20.506c-2.519,7.271,1.34,15.206,8.61,17.723l45.67,15.8
			c7.27,2.515,15.203-1.341,17.722-8.609l7.095-20.507c11.119,0.652,22.15-0.044,32.888-1.979l9.489,19.532
			c3.359,6.921,11.7,9.806,18.618,6.444l43.469-21.12c6.921-3.365,9.802-11.7,6.442-18.625l-9.491-19.529
			c8.155-7.245,15.521-15.487,21.881-24.631l20.504,7.095c7.271,2.518,15.207-1.342,17.725-8.61l15.801-45.674
			C883.035,585.573,879.181,577.64,871.907,575.121z M693.765,610.691c-28.063-9.708-42.942-40.33-33.231-68.394
			c9.71-28.063,40.33-42.942,68.395-33.232c28.062,9.709,42.938,40.331,33.23,68.395
			C752.447,605.522,721.827,620.401,693.765,610.691z"/>
		<path fill="#293F42" d="M686.885,630.575c-39.047-13.511-59.747-56.11-46.235-95.157c13.508-39.044,56.11-59.745,95.153-46.235
			l31.341-90.581l-22.835-7.901c-7.27-2.515-15.202,1.339-17.718,8.611l-7.097,20.505c-11.118-0.652-22.151,0.045-32.888,1.979
			l-9.493-19.533c-3.36-6.919-11.698-9.805-18.616-6.443l-43.47,21.121c-6.918,3.361-9.803,11.699-6.442,18.62l9.49,19.532
			c-8.154,7.247-15.521,15.488-21.878,24.633l-20.506-7.095c-7.271-2.518-15.206,1.34-17.721,8.609l-15.801,45.672
			c-2.516,7.269,1.339,15.203,8.61,17.721l20.506,7.096c-0.652,11.119,0.044,22.149,1.979,32.887l-19.534,9.489
			c-6.922,3.362-9.805,11.701-6.444,18.62l21.122,43.468c3.36,6.918,11.698,9.804,18.62,6.442l19.534-9.491
			c7.245,8.158,15.486,15.521,24.632,21.88l-7.095,20.506c-2.519,7.271,1.34,15.206,8.61,17.723l22.835,7.899L686.885,630.575z"/>
		<path fill="#293F42" d="M737.028,485.646l-8.101,23.419c28.062,9.709,42.938,40.331,33.23,68.395
			c-9.711,28.062-40.331,42.941-68.394,33.231l-8.103,23.419c40.999,14.185,85.729-7.548,99.912-48.548
			C799.761,544.564,778.027,499.833,737.028,485.646z"/>
	</g>
	<g>
		<path fill="#3E5A60" d="M947.455,405.622l-1.722-5.422c2.846-2.335,5.564-4.893,8.121-7.693c2.553-2.8,4.855-5.743,6.917-8.793
			l5.557,1.218c9.153,2.008,18.196-3.782,20.206-12.932l4.886-22.265c2.007-9.156-3.782-18.2-12.934-20.207l-5.575-1.224
			c-1.189-7.319-3.444-14.491-6.739-21.265l3.834-4.207c6.315-6.919,5.822-17.649-1.099-23.964l-16.842-15.363
			c-6.923-6.315-17.649-5.822-23.963,1.1l-3.835,4.205c-7.05-2.664-14.394-4.25-21.796-4.768l-1.729-5.44
			c-2.836-8.927-12.372-13.866-21.302-11.03l-21.724,6.904c-8.932,2.836-13.87,12.374-11.031,21.303l1.721,5.421
			c-2.847,2.337-5.568,4.894-8.121,7.696c-2.558,2.801-4.854,5.745-6.918,8.793l-5.563-1.219
			c-9.148-2.009-18.192,3.782-20.202,12.934l-4.885,22.265c-2.006,9.152,3.782,18.198,12.938,20.206l5.576,1.222
			c1.187,7.322,3.44,14.491,6.735,21.266l-3.832,4.207c-6.318,6.92-5.823,17.649,1.099,23.963l16.838,15.362
			c6.924,6.318,17.651,5.824,23.966-1.097l3.836-4.205c7.049,2.664,14.394,4.249,21.794,4.768l1.727,5.439
			c2.839,8.929,12.374,13.865,21.303,11.031l21.727-6.903C945.353,424.091,950.291,414.553,947.455,405.622z M866.389,374.332
			c-18.571-16.945-19.895-45.739-2.951-64.312c16.945-18.572,45.738-19.893,64.312-2.948c18.573,16.944,19.895,45.737,2.951,64.309
			C913.754,389.954,884.962,391.273,866.389,374.332z"/>
		<path fill="#293F42" d="M866.389,374.332c-18.571-16.945-19.895-45.739-2.951-64.312c16.945-18.572,45.738-19.893,64.312-2.948
			l32.736-35.884l-8.42-7.682c-6.923-6.315-17.649-5.822-23.963,1.1l-3.835,4.205c-7.05-2.664-14.394-4.25-21.796-4.768l-1.729-5.44
			c-2.836-8.927-12.372-13.866-21.302-11.03l-21.724,6.904c-8.932,2.836-13.87,12.374-11.031,21.303l1.721,5.421
			c-2.847,2.337-5.568,4.894-8.121,7.696c-2.558,2.801-4.854,5.745-6.918,8.793l-5.563-1.219
			c-9.148-2.009-18.192,3.782-20.202,12.934l-4.885,22.265c-2.006,9.152,3.782,18.198,12.938,20.206l5.576,1.222
			c1.187,7.322,3.44,14.491,6.735,21.266l-3.832,4.207c-6.318,6.92-5.823,17.649,1.099,23.963l8.417,7.683L866.389,374.332z"/>
	</g>
	<text transform="matrix(1 0 0 1 1059.7754 638.4502)" fill="#293F42" font-family="'Dosis-Bold'" font-size="72.8893">UNDER CONSTRUCTION</text>
	<rect x="943.207" y="698.454" fill="none" width="810.83" height="340.384"/>
	<text transform="matrix(1 0 0 1 946.8418 721.3145)"><tspan x="0" y="0" fill="#3E5A60" font-family="'Dosis-Regular'" font-size="30">Lorem ipsum dolor sit amet, consectetur adipiscing elit, sed do eiusmod </tspan><tspan x="227.188" y="36" fill="#3E5A60" font-family="'Dosis-Regular'" font-size="30">tempor incididunt ut labore et dolore magna aliqua.</tspan><tspan x="807.195" y="72" fill="#3E5A60" font-family="'Dosis-Regular'" font-size="30"> </tspan><tspan x="2.16" y="108" fill="#3E5A60" font-family="'Dosis-Regular'" font-size="30">Ut enim ad minim veniam, quis nostrud exercitation ullamco laboris nisi </tspan><tspan x="-0.059" y="144" fill="#3E5A60" font-family="'Dosis-Regular'" font-size="30">ut aliquip ex ea commodo consequat. Duis aute irure dolor in reprehen</tspan><tspan x="794.814" y="144" fill="#3E5A60" font-family="'Dosis-Regular'" font-size="30">-</tspan><tspan x="83.191" y="180" fill="#3E5A60" font-family="'Dosis-Regular'" font-size="30">derit in voluptate velit esse cillum dolore eu fugiat nulla pariatur.</tspan></text>
	<g>
		<g>
			<rect x="1544.754" y="1008.912" fill="#D29652" width="200.423" height="70.248"/>
			<rect x="1540.932" y="1005.09" fill="#F8BB68" width="200.423" height="70.248"/>
			<text transform="matrix(1 0 0 1 1552.1729 1057.5586)" fill="#293F42" font-family="'Dosis-SemiBold'" font-size="45.7917">CONTACT</text>
		</g>
		<g>
			<rect x="1210.373" y="1008.912" fill="#D29652" width="200.423" height="70.248"/>
			<rect x="1206.551" y="1005.09" fill="#F8BB68" width="200.423" height="70.248"/>
			
				<text transform="matrix(1 0 0 1 1258.4766 1057.5586)" fill="#293F42" font-family="'Dosis-SemiBold'" font-size="45.7917" letter-spacing="2">INFO</text>
		</g>
	</g>
</g>
</svg>
